# xmcd CD database file
#
# Track frame offsets:
#	150
#	13996
#	26302
#	43081
#	64981
#	86936
#	102655
#	122287
#	147179
#	163660
#	176783
#	205913
#	219640
#
# Disc length: 3251 seconds
#
# Revision: 1
# Processed by: cddbd v1.5.2PL0 Copyright (c) Steve Scherf et al.
# Submitted via: CDex 1.51
#
DISCID=c00cb10d
DTITLE=James Cotton - Baby, Don't You Tear My Clothes
DYEAR=1900
DGENRE=Blues
TTITLE0=Coach's Better Days
TTITLE1=Baby Don't You Tear My Clothes
TTITLE2=When You Got A Good Friend
TTITLE3=Stealin' Stealin'
TTITLE4=Key To The Highway
TTITLE5=Almost Lost My Mind
TTITLE6=Rainin' In My Heart
TTITLE7=Bring It On Home To Me
TTITLE8=Muleskinner Blues
TTITLE9=How Long Blues
TTITLE10=Mississippi Blues
TTITLE11=Blues For Jacklyn
TTITLE12=Friends
EXTD=
EXTT0=
EXTT1=
EXTT2=
EXTT3=
EXTT4=
EXTT5=
EXTT6=
EXTT7=
EXTT8=
EXTT9=
EXTT10=
EXTT11=
EXTT12=
PLAYORDER=
